<svg xmlns="http://www.w3.org/2000/svg" width="840" height="260" viewBox="0 0 840 260" role="img" aria-label="Activity — last 30 days">
<defs>
  <linearGradient id="act-bg" x1="0" y1="0" x2="0.4" y2="1"><stop offset="0" stop-color="#24164f"/><stop offset="1" stop-color="#0b0818"/></linearGradient>
  <linearGradient id="act-rim" gradientUnits="userSpaceOnUse" x1="0" y1="0" x2="840" y2="260">
    <stop offset="0" stop-color="#bda6ff"/><stop offset="0.25" stop-color="#4ff7ff"/><stop offset="0.5" stop-color="#ff4fae"/><stop offset="0.75" stop-color="#3dffc5"/><stop offset="1" stop-color="#bda6ff"/>
    <animateTransform attributeName="gradientTransform" type="rotate" values="0 420 130;360 420 130" dur="8s" repeatCount="indefinite"/>
  </linearGradient>
  <radialGradient id="act-glow" cx="0.5" cy="0" r="0.9"><stop offset="0" stop-color="#9f72ff" stop-opacity="0.28"/><stop offset="1" stop-color="#9f72ff" stop-opacity="0"/></radialGradient>
</defs>
<rect x="1.5" y="1.5" width="837" height="257" rx="18" fill="url(#act-bg)"/>
<rect x="1.5" y="1.5" width="837" height="257" rx="18" fill="url(#act-glow)"/>
<rect x="1.5" y="1.5" width="837" height="257" rx="18" fill="none" stroke="url(#act-rim)" stroke-width="2.2"/>
<text x="24" y="38" font-family="'Segoe UI', 'Helvetica Neue', Helvetica, Arial, 'Noto Sans', sans-serif" font-size="15" font-weight="800" letter-spacing="2.4" fill="#4ff7ff">ACTIVITY — LAST 30 DAYS</text>
<defs><linearGradient id="act-fill" x1="0" y1="0" x2="0" y2="1"><stop offset="0" stop-color="#ff4fae" stop-opacity="0.45"/><stop offset="1" stop-color="#9f72ff" stop-opacity="0"/></linearGradient>
<linearGradient id="act-line" x1="0" x2="1"><stop offset="0" stop-color="#4ff7ff"/><stop offset="0.5" stop-color="#bda6ff"/><stop offset="1" stop-color="#ff4fae"/></linearGradient>
<clipPath id="act-reveal"><rect x="0" y="0" width="0" height="260"><animate attributeName="width" from="0" to="840" dur="1.8s" fill="freeze" calcMode="spline" keyTimes="0;1" keySplines="0.3 0.7 0.3 1"/></rect></clipPath></defs>
<line x1="50" y1="210" x2="810" y2="210" stroke="#fff" stroke-opacity="0.06"/><text x="40" y="214" text-anchor="end" font-family="'Segoe UI', 'Helvetica Neue', Helvetica, Arial, 'Noto Sans', sans-serif" font-size="11" fill="#b7aedc">0</text><line x1="50" y1="175" x2="810" y2="175" stroke="#fff" stroke-opacity="0.06"/><text x="40" y="179" text-anchor="end" font-family="'Segoe UI', 'Helvetica Neue', Helvetica, Arial, 'Noto Sans', sans-serif" font-size="11" fill="#b7aedc">34</text><line x1="50" y1="140" x2="810" y2="140" stroke="#fff" stroke-opacity="0.06"/><text x="40" y="144" text-anchor="end" font-family="'Segoe UI', 'Helvetica Neue', Helvetica, Arial, 'Noto Sans', sans-serif" font-size="11" fill="#b7aedc">68</text><line x1="50" y1="105" x2="810" y2="105" stroke="#fff" stroke-opacity="0.06"/><text x="40" y="109" text-anchor="end" font-family="'Segoe UI', 'Helvetica Neue', Helvetica, Arial, 'Noto Sans', sans-serif" font-size="11" fill="#b7aedc">102</text><line x1="50" y1="70" x2="810" y2="70" stroke="#fff" stroke-opacity="0.06"/><text x="40" y="74" text-anchor="end" font-family="'Segoe UI', 'Helvetica Neue', Helvetica, Arial, 'Noto Sans', sans-serif" font-size="11" fill="#b7aedc">136</text><g clip-path="url(#act-reveal)"><path d="M50 210 C 63.1 210 63.1 210 76.2 210 C 89.3 210 89.3 210 102.4 210 C 115.5 210 115.5 210 128.6 210 C 141.7 210 141.7 202.8 154.8 202.8 C 167.9 202.8 167.9 205.9 181 205.9 C 194.1 205.9 194.1 210 207.2 210 C 220.3 210 220.3 210 233.4 210 C 246.6 210 246.6 210 259.7 210 C 272.8 210 272.8 210 285.9 210 C 299 210 299 210 312.1 210 C 325.2 210 325.2 210 338.3 210 C 351.4 210 351.4 210 364.5 210 C 377.6 210 377.6 210 390.7 210 C 403.8 210 403.8 210 416.9 210 C 430 210 430 194.6 443.1 194.6 C 456.2 194.6 456.2 189.4 469.3 189.4 C 482.4 189.4 482.4 203.8 495.5 203.8 C 508.6 203.8 508.6 210 521.7 210 C 534.8 210 534.8 210 547.9 210 C 561 210 561 210 574.1 210 C 587.2 210 587.2 210 600.3 210 C 613.5 210 613.5 190.4 626.6 190.4 C 639.7 190.4 639.7 157.5 652.8 157.5 C 665.9 157.5 665.9 148.2 679 148.2 C 692.1 148.2 692.1 195.6 705.2 195.6 C 718.3 195.6 718.3 154.4 731.4 154.4 C 744.5 154.4 744.5 70 757.6 70 C 770.7 70 770.7 132.8 783.8 132.8 C 796.9 132.8 796.9 172.9 810 172.9 L 810 210 L 50 210 Z" fill="url(#act-fill)"/><path d="M50 210 C 63.1 210 63.1 210 76.2 210 C 89.3 210 89.3 210 102.4 210 C 115.5 210 115.5 210 128.6 210 C 141.7 210 141.7 202.8 154.8 202.8 C 167.9 202.8 167.9 205.9 181 205.9 C 194.1 205.9 194.1 210 207.2 210 C 220.3 210 220.3 210 233.4 210 C 246.6 210 246.6 210 259.7 210 C 272.8 210 272.8 210 285.9 210 C 299 210 299 210 312.1 210 C 325.2 210 325.2 210 338.3 210 C 351.4 210 351.4 210 364.5 210 C 377.6 210 377.6 210 390.7 210 C 403.8 210 403.8 210 416.9 210 C 430 210 430 194.6 443.1 194.6 C 456.2 194.6 456.2 189.4 469.3 189.4 C 482.4 189.4 482.4 203.8 495.5 203.8 C 508.6 203.8 508.6 210 521.7 210 C 534.8 210 534.8 210 547.9 210 C 561 210 561 210 574.1 210 C 587.2 210 587.2 210 600.3 210 C 613.5 210 613.5 190.4 626.6 190.4 C 639.7 190.4 639.7 157.5 652.8 157.5 C 665.9 157.5 665.9 148.2 679 148.2 C 692.1 148.2 692.1 195.6 705.2 195.6 C 718.3 195.6 718.3 154.4 731.4 154.4 C 744.5 154.4 744.5 70 757.6 70 C 770.7 70 770.7 132.8 783.8 132.8 C 796.9 132.8 796.9 172.9 810 172.9" fill="none" stroke="url(#act-line)" stroke-width="3" stroke-linecap="round"/></g><circle cx="154.8" cy="202.8" r="4" fill="#3dffc5" opacity="0"><animate attributeName="opacity" from="0" to="1" dur="0.3s" begin="0.8s" fill="freeze"/><animate attributeName="r" values="4;6;4" dur="2.4s" begin="3.6s" repeatCount="indefinite"/></circle><circle cx="181" cy="205.9" r="4" fill="#ff8ccc" opacity="0"><animate attributeName="opacity" from="0" to="1" dur="0.3s" begin="0.9s" fill="freeze"/><animate attributeName="r" values="4;6;4" dur="2.4s" begin="4s" repeatCount="indefinite"/></circle><circle cx="443.1" cy="194.6" r="4" fill="#ff4fae" opacity="0"><animate attributeName="opacity" from="0" to="1" dur="0.3s" begin="1.4s" fill="freeze"/><animate attributeName="r" values="4;6;4" dur="2.4s" begin="3.2s" repeatCount="indefinite"/></circle><circle cx="469.3" cy="189.4" r="4" fill="#4ff7ff" opacity="0"><animate attributeName="opacity" from="0" to="1" dur="0.3s" begin="1.4s" fill="freeze"/><animate attributeName="r" values="4;6;4" dur="2.4s" begin="3.6s" repeatCount="indefinite"/></circle><circle cx="495.5" cy="203.8" r="4" fill="#bda6ff" opacity="0"><animate attributeName="opacity" from="0" to="1" dur="0.3s" begin="1.5s" fill="freeze"/><animate attributeName="r" values="4;6;4" dur="2.4s" begin="4s" repeatCount="indefinite"/></circle><circle cx="626.6" cy="190.4" r="4" fill="#ff4fae" opacity="0"><animate attributeName="opacity" from="0" to="1" dur="0.3s" begin="1.7s" fill="freeze"/><animate attributeName="r" values="4;6;4" dur="2.4s" begin="3.6s" repeatCount="indefinite"/></circle><circle cx="652.8" cy="157.5" r="4" fill="#4ff7ff" opacity="0"><animate attributeName="opacity" from="0" to="1" dur="0.3s" begin="1.8s" fill="freeze"/><animate attributeName="r" values="4;6;4" dur="2.4s" begin="4s" repeatCount="indefinite"/></circle><circle cx="679" cy="148.2" r="4" fill="#bda6ff" opacity="0"><animate attributeName="opacity" from="0" to="1" dur="0.3s" begin="1.8s" fill="freeze"/><animate attributeName="r" values="4;6;4" dur="2.4s" begin="2s" repeatCount="indefinite"/></circle><circle cx="705.2" cy="195.6" r="4" fill="#3dffc5" opacity="0"><animate attributeName="opacity" from="0" to="1" dur="0.3s" begin="1.9s" fill="freeze"/><animate attributeName="r" values="4;6;4" dur="2.4s" begin="2.4s" repeatCount="indefinite"/></circle><circle cx="731.4" cy="154.4" r="4" fill="#ff8ccc" opacity="0"><animate attributeName="opacity" from="0" to="1" dur="0.3s" begin="1.9s" fill="freeze"/><animate attributeName="r" values="4;6;4" dur="2.4s" begin="2.8s" repeatCount="indefinite"/></circle><circle cx="757.6" cy="70" r="4" fill="#9fdcff" opacity="0"><animate attributeName="opacity" from="0" to="1" dur="0.3s" begin="2s" fill="freeze"/><animate attributeName="r" values="4;6;4" dur="2.4s" begin="3.2s" repeatCount="indefinite"/></circle><circle cx="783.8" cy="132.8" r="4" fill="#ffd95e" opacity="0"><animate attributeName="opacity" from="0" to="1" dur="0.3s" begin="2s" fill="freeze"/><animate attributeName="r" values="4;6;4" dur="2.4s" begin="3.6s" repeatCount="indefinite"/></circle><circle cx="810" cy="172.9" r="4" fill="#ff4fae" opacity="0"><animate attributeName="opacity" from="0" to="1" dur="0.3s" begin="2.1s" fill="freeze"/><animate attributeName="r" values="4;6;4" dur="2.4s" begin="4s" repeatCount="indefinite"/></circle>
<text x="50" y="236" font-family="'Segoe UI', 'Helvetica Neue', Helvetica, Arial, 'Noto Sans', sans-serif" font-size="11.5" font-weight="700" fill="#b7aedc">11 Sep</text>
<text x="810" y="236" text-anchor="end" font-family="'Segoe UI', 'Helvetica Neue', Helvetica, Arial, 'Noto Sans', sans-serif" font-size="11.5" font-weight="700" fill="#b7aedc">10 Oct</text>
</svg>
