<svg xmlns="http://www.w3.org/2000/svg" width="840" height="260" viewBox="0 0 840 260" role="img" aria-label="Activity — last 30 days">
<defs>
  <linearGradient id="act-bg" x1="0" y1="0" x2="0.4" y2="1"><stop offset="0" stop-color="#24164f"/><stop offset="1" stop-color="#0b0818"/></linearGradient>
  <linearGradient id="act-rim" gradientUnits="userSpaceOnUse" x1="0" y1="0" x2="840" y2="260">
    <stop offset="0" stop-color="#bda6ff"/><stop offset="0.25" stop-color="#4ff7ff"/><stop offset="0.5" stop-color="#ff4fae"/><stop offset="0.75" stop-color="#3dffc5"/><stop offset="1" stop-color="#bda6ff"/>
    <animateTransform attributeName="gradientTransform" type="rotate" values="0 420 130;360 420 130" dur="8s" repeatCount="indefinite"/>
  </linearGradient>
  <radialGradient id="act-glow" cx="0.5" cy="0" r="0.9"><stop offset="0" stop-color="#9f72ff" stop-opacity="0.28"/><stop offset="1" stop-color="#9f72ff" stop-opacity="0"/></radialGradient>
</defs>
<rect x="1.5" y="1.5" width="837" height="257" rx="18" fill="url(#act-bg)"/>
<rect x="1.5" y="1.5" width="837" height="257" rx="18" fill="url(#act-glow)"/>
<rect x="1.5" y="1.5" width="837" height="257" rx="18" fill="none" stroke="url(#act-rim)" stroke-width="2.2"/>
<text x="24" y="38" font-family="'Segoe UI', 'Helvetica Neue', Helvetica, Arial, 'Noto Sans', sans-serif" font-size="15" font-weight="800" letter-spacing="2.4" fill="#4ff7ff">ACTIVITY — LAST 30 DAYS</text>
<defs><linearGradient id="act-fill" x1="0" y1="0" x2="0" y2="1"><stop offset="0" stop-color="#ff4fae" stop-opacity="0.45"/><stop offset="1" stop-color="#9f72ff" stop-opacity="0"/></linearGradient>
<linearGradient id="act-line" x1="0" x2="1"><stop offset="0" stop-color="#4ff7ff"/><stop offset="0.5" stop-color="#bda6ff"/><stop offset="1" stop-color="#ff4fae"/></linearGradient>
<clipPath id="act-reveal"><rect x="0" y="0" width="0" height="260"><animate attributeName="width" from="0" to="840" dur="1.8s" fill="freeze" calcMode="spline" keyTimes="0;1" keySplines="0.3 0.7 0.3 1"/></rect></clipPath></defs>
<line x1="50" y1="210" x2="810" y2="210" stroke="#fff" stroke-opacity="0.06"/><text x="40" y="214" text-anchor="end" font-family="'Segoe UI', 'Helvetica Neue', Helvetica, Arial, 'Noto Sans', sans-serif" font-size="11" fill="#b7aedc">0</text><line x1="50" y1="175" x2="810" y2="175" stroke="#fff" stroke-opacity="0.06"/><text x="40" y="179" text-anchor="end" font-family="'Segoe UI', 'Helvetica Neue', Helvetica, Arial, 'Noto Sans', sans-serif" font-size="11" fill="#b7aedc">16</text><line x1="50" y1="140" x2="810" y2="140" stroke="#fff" stroke-opacity="0.06"/><text x="40" y="144" text-anchor="end" font-family="'Segoe UI', 'Helvetica Neue', Helvetica, Arial, 'Noto Sans', sans-serif" font-size="11" fill="#b7aedc">31</text><line x1="50" y1="105" x2="810" y2="105" stroke="#fff" stroke-opacity="0.06"/><text x="40" y="109" text-anchor="end" font-family="'Segoe UI', 'Helvetica Neue', Helvetica, Arial, 'Noto Sans', sans-serif" font-size="11" fill="#b7aedc">47</text><line x1="50" y1="70" x2="810" y2="70" stroke="#fff" stroke-opacity="0.06"/><text x="40" y="74" text-anchor="end" font-family="'Segoe UI', 'Helvetica Neue', Helvetica, Arial, 'Noto Sans', sans-serif" font-size="11" fill="#b7aedc">62</text><g clip-path="url(#act-reveal)"><path d="M50 210 C 63.1 210 63.1 210 76.2 210 C 89.3 210 89.3 210 102.4 210 C 115.5 210 115.5 210 128.6 210 C 141.7 210 141.7 210 154.8 210 C 167.9 210 167.9 194.2 181 194.2 C 194.1 194.2 194.1 201 207.2 201 C 220.3 201 220.3 210 233.4 210 C 246.6 210 246.6 210 259.7 210 C 272.8 210 272.8 210 285.9 210 C 299 210 299 210 312.1 210 C 325.2 210 325.2 210 338.3 210 C 351.4 210 351.4 210 364.5 210 C 377.6 210 377.6 210 390.7 210 C 403.8 210 403.8 210 416.9 210 C 430 210 430 210 443.1 210 C 456.2 210 456.2 176.1 469.3 176.1 C 482.4 176.1 482.4 164.8 495.5 164.8 C 508.6 164.8 508.6 196.5 521.7 196.5 C 534.8 196.5 534.8 210 547.9 210 C 561 210 561 210 574.1 210 C 587.2 210 587.2 210 600.3 210 C 613.5 210 613.5 210 626.6 210 C 639.7 210 639.7 167.1 652.8 167.1 C 665.9 167.1 665.9 94.8 679 94.8 C 692.1 94.8 692.1 74.5 705.2 74.5 C 718.3 74.5 718.3 178.4 731.4 178.4 C 744.5 178.4 744.5 101.6 757.6 101.6 C 770.7 101.6 770.7 70 783.8 70 C 796.9 70 796.9 185.2 810 185.2 L 810 210 L 50 210 Z" fill="url(#act-fill)"/><path d="M50 210 C 63.1 210 63.1 210 76.2 210 C 89.3 210 89.3 210 102.4 210 C 115.5 210 115.5 210 128.6 210 C 141.7 210 141.7 210 154.8 210 C 167.9 210 167.9 194.2 181 194.2 C 194.1 194.2 194.1 201 207.2 201 C 220.3 201 220.3 210 233.4 210 C 246.6 210 246.6 210 259.7 210 C 272.8 210 272.8 210 285.9 210 C 299 210 299 210 312.1 210 C 325.2 210 325.2 210 338.3 210 C 351.4 210 351.4 210 364.5 210 C 377.6 210 377.6 210 390.7 210 C 403.8 210 403.8 210 416.9 210 C 430 210 430 210 443.1 210 C 456.2 210 456.2 176.1 469.3 176.1 C 482.4 176.1 482.4 164.8 495.5 164.8 C 508.6 164.8 508.6 196.5 521.7 196.5 C 534.8 196.5 534.8 210 547.9 210 C 561 210 561 210 574.1 210 C 587.2 210 587.2 210 600.3 210 C 613.5 210 613.5 210 626.6 210 C 639.7 210 639.7 167.1 652.8 167.1 C 665.9 167.1 665.9 94.8 679 94.8 C 692.1 94.8 692.1 74.5 705.2 74.5 C 718.3 74.5 718.3 178.4 731.4 178.4 C 744.5 178.4 744.5 101.6 757.6 101.6 C 770.7 101.6 770.7 70 783.8 70 C 796.9 70 796.9 185.2 810 185.2" fill="none" stroke="url(#act-line)" stroke-width="3" stroke-linecap="round"/></g><circle cx="181" cy="194.2" r="4" fill="#ff8ccc" opacity="0"><animate attributeName="opacity" from="0" to="1" dur="0.3s" begin="0.9s" fill="freeze"/><animate attributeName="r" values="4;6;4" dur="2.4s" begin="4s" repeatCount="indefinite"/></circle><circle cx="207.2" cy="201" r="4" fill="#9fdcff" opacity="0"><animate attributeName="opacity" from="0" to="1" dur="0.3s" begin="0.9s" fill="freeze"/><animate attributeName="r" values="4;6;4" dur="2.4s" begin="2s" repeatCount="indefinite"/></circle><circle cx="469.3" cy="176.1" r="4" fill="#4ff7ff" opacity="0"><animate attributeName="opacity" from="0" to="1" dur="0.3s" begin="1.4s" fill="freeze"/><animate attributeName="r" values="4;6;4" dur="2.4s" begin="3.6s" repeatCount="indefinite"/></circle><circle cx="495.5" cy="164.8" r="4" fill="#bda6ff" opacity="0"><animate attributeName="opacity" from="0" to="1" dur="0.3s" begin="1.5s" fill="freeze"/><animate attributeName="r" values="4;6;4" dur="2.4s" begin="4s" repeatCount="indefinite"/></circle><circle cx="521.7" cy="196.5" r="4" fill="#3dffc5" opacity="0"><animate attributeName="opacity" from="0" to="1" dur="0.3s" begin="1.5s" fill="freeze"/><animate attributeName="r" values="4;6;4" dur="2.4s" begin="2s" repeatCount="indefinite"/></circle><circle cx="652.8" cy="167.1" r="4" fill="#4ff7ff" opacity="0"><animate attributeName="opacity" from="0" to="1" dur="0.3s" begin="1.8s" fill="freeze"/><animate attributeName="r" values="4;6;4" dur="2.4s" begin="4s" repeatCount="indefinite"/></circle><circle cx="679" cy="94.8" r="4" fill="#bda6ff" opacity="0"><animate attributeName="opacity" from="0" to="1" dur="0.3s" begin="1.8s" fill="freeze"/><animate attributeName="r" values="4;6;4" dur="2.4s" begin="2s" repeatCount="indefinite"/></circle><circle cx="705.2" cy="74.5" r="4" fill="#3dffc5" opacity="0"><animate attributeName="opacity" from="0" to="1" dur="0.3s" begin="1.9s" fill="freeze"/><animate attributeName="r" values="4;6;4" dur="2.4s" begin="2.4s" repeatCount="indefinite"/></circle><circle cx="731.4" cy="178.4" r="4" fill="#ff8ccc" opacity="0"><animate attributeName="opacity" from="0" to="1" dur="0.3s" begin="1.9s" fill="freeze"/><animate attributeName="r" values="4;6;4" dur="2.4s" begin="2.8s" repeatCount="indefinite"/></circle><circle cx="757.6" cy="101.6" r="4" fill="#9fdcff" opacity="0"><animate attributeName="opacity" from="0" to="1" dur="0.3s" begin="2s" fill="freeze"/><animate attributeName="r" values="4;6;4" dur="2.4s" begin="3.2s" repeatCount="indefinite"/></circle><circle cx="783.8" cy="70" r="4" fill="#ffd95e" opacity="0"><animate attributeName="opacity" from="0" to="1" dur="0.3s" begin="2s" fill="freeze"/><animate attributeName="r" values="4;6;4" dur="2.4s" begin="3.6s" repeatCount="indefinite"/></circle><circle cx="810" cy="185.2" r="4" fill="#ff4fae" opacity="0"><animate attributeName="opacity" from="0" to="1" dur="0.3s" begin="2.1s" fill="freeze"/><animate attributeName="r" values="4;6;4" dur="2.4s" begin="4s" repeatCount="indefinite"/></circle>
<text x="50" y="236" font-family="'Segoe UI', 'Helvetica Neue', Helvetica, Arial, 'Noto Sans', sans-serif" font-size="11.5" font-weight="700" fill="#b7aedc">10 Sep</text>
<text x="810" y="236" text-anchor="end" font-family="'Segoe UI', 'Helvetica Neue', Helvetica, Arial, 'Noto Sans', sans-serif" font-size="11.5" font-weight="700" fill="#b7aedc">9 Oct</text>
</svg>
