<svg xmlns="http://www.w3.org/2000/svg" width="48" height="48" viewBox="0 0 24 24" role="img" aria-label="heart">
<defs>
  <linearGradient id="i-heart" gradientUnits="userSpaceOnUse" x1="2" y1="2" x2="22" y2="22"><stop offset="0" stop-color="#ff4fae"/><stop offset="1" stop-color="#ff8ccc"/>
    <animateTransform attributeName="gradientTransform" type="rotate" values="0 12 12;360 12 12" dur="6s" repeatCount="indefinite"/></linearGradient>
  <filter id="i-heart-g" x="-30%" y="-30%" width="160%" height="160%"><feGaussianBlur stdDeviation="1.1"/></filter>
</defs>
<g fill="none" stroke="url(#i-heart)" stroke-width="1.7" stroke-linecap="round" stroke-linejoin="round">
  <g filter="url(#i-heart-g)" opacity="0.6"><animate attributeName="opacity" values="0.25;0.75;0.25" dur="2.6s" repeatCount="indefinite"/><g transform="translate(12 12)"><g><animateTransform attributeName="transform" type="scale" values="1;1.1;1;1.06;1" keyTimes="0;0.15;0.3;0.45;1" dur="1.6s" repeatCount="indefinite"/><path transform="translate(-12 -12)" d="M12 20 C5 15 3 11.5 3 8.5 C3 6 5 4 7.5 4 C9.5 4 11 5 12 6.5 C13 5 14.5 4 16.5 4 C19 4 21 6 21 8.5 C21 11.5 19 15 12 20 Z"/></g></g></g>
  <g transform="translate(12 12)"><g><animateTransform attributeName="transform" type="scale" values="1;1.1;1;1.06;1" keyTimes="0;0.15;0.3;0.45;1" dur="1.6s" repeatCount="indefinite"/><path transform="translate(-12 -12)" d="M12 20 C5 15 3 11.5 3 8.5 C3 6 5 4 7.5 4 C9.5 4 11 5 12 6.5 C13 5 14.5 4 16.5 4 C19 4 21 6 21 8.5 C21 11.5 19 15 12 20 Z"/></g></g>
</g>
</svg>
